<?xml version="1.0" encoding="UTF-8"?>
<svg id="Layer_1" xmlns="http://www.w3.org/2000/svg" version="1.1" viewBox="0 0 2298.7 411.5">
  <!-- Generator: Adobe Illustrator 29.3.0, SVG Export Plug-In . SVG Version: 2.1.0 Build 146)  -->
  <defs>
    <style>
      .st0 {
        fill: #1d1d1b;
      }
    </style>
  </defs>
  <path class="st0" d="M267.4,290.4c19.6-9.8,33.5-23.8,43.3-39.1,9.8-16.8,15.4-36.3,15.4-58.7s-5.6-44.7-16.8-62.9c-11.2-18.2-28-32.1-50.3-41.9-21-9.8-46.1-14-75.5-14H32.5v134.2c29.4,0,64.3-5.6,99.2-22.4l-25.1-9.3c-.9-.3-1.9-.6-2.8-1-1.1-.5-2.4-1.4-2.9-2.8-.4-1.4,0-3.1,1-4.3,2.6-3,10.3-5,10.3-5,0,0,8.4-1.4,16.8,0,12.6,1.4,37,5.6,37,5.6,0,0,3.3,0,7-1.4,2.6-1.3,38.1-15,42-16.5.2,0,.5-.2.7-.3,1.7-.6,9.4-3.1,19.2-3.1s8.7.6,11,1.3c3.5,1.2,7.3,5.2,5.7,8.6-1,2.1-3.9,4.8-10.8,8.4-20,10.4-30,15.5-34.9,18.1-3.1,1.6-6.4,3.3-8,6.4-1.1,2.2-12.4,26.9-17.3,37.6-1.5,3.3-2.9,6.6-5.1,9.5-1.8,2.5-4.7,5.6-8.7,8.3-1.3.8-2.4,1.5-3.3,1.9-4.7,2.2-10.6,3.3-10.6-1.9s0-2.8,1.4-14c1.4-12.6,4.4-28.5,4.4-28.5,0,0-118.9,47.9-124.6,144.5v39h106.2v-78.3h28l53.1,78.3h113.2l-67.1-96.4Z"/>
  <path class="st0" d="M632.2,265.2c0-26.6-5.6-48.9-18.2-68.5-11.2-19.6-28-33.5-48.9-43.3-21-9.8-43.3-14-67.1-14s-50.3,5.6-71.3,15.4c-21,11.2-37.7,25.2-50.3,44.7-12.6,19.6-18.2,40.5-18.2,65.7s5.6,46.1,18.2,65.7c12.6,19.6,29.4,34.9,51.7,46.1,22.4,11.2,47.5,15.4,78.3,15.4,47.5,0,82.5-12.6,106.2-39.1l-53.1-53.1c-8.4,7-16.8,11.2-23.8,14-7,2.8-15.4,4.2-26.6,4.2s-22.4-2.8-30.8-7c-8.4-5.6-14-12.6-18.2-21h170.5c0-15.4,1.4-23.8,1.4-25.2ZM458.9,240c2.8-11.2,7-18.2,14-23.8,7-5.6,15.4-8.4,26.6-8.4s19.6,2.8,26.6,8.4,11.2,14,14,23.8h-81.1Z"/>
  <path class="st0" d="M829.3,308.5c-7,4.2-14,7-22.4,7s-11.2-2.8-15.4-7c-4.2-2.8-7-9.8-7-16.8v-61.5h50.3v-74.1h-50.3v-68.5h-100.6v68.5h-33.5v74.1h33.5v62.9c0,33.5,9.8,57.3,28,74.1,18.2,16.8,44.7,25.2,79.7,25.2s47.5-4.2,61.5-12.6l-23.8-71.3Z"/>
  <path class="st0" d="M1094.8,167.4c-22.4-19.6-55.9-29.4-97.8-29.4s-39.1,2.8-60.1,7c-19.6,4.2-36.3,11.2-50.3,19.6l32.1,67.1c8.4-5.6,18.2-11.2,29.4-14,11.2-4.2,22.4-5.6,33.5-5.6,28,0,43.3,9.8,46.1,28h-40.5c-37.7,0-65.7,7-83.9,18.2-18.2,12.6-28,30.8-28,54.5s2.8,28,9.8,39.1c7,11.2,16.8,21,30.8,28s30.8,9.8,50.3,9.8c34.9,0,57.3-12.6,69.9-36.3v32.1h93.6v-131.4c0-37.7-11.2-67.1-34.9-86.7ZM1027.7,308.5c-2.8,8.4-7,14-12.6,16.8-5.6,4.2-12.6,5.6-19.6,5.6s-14-1.4-18.2-5.6c-4.2-4.2-5.6-8.4-5.6-14,0-14,9.8-21,30.8-21h25.2v18.2Z"/>
  <rect class="st0" x="1181.5" y="142.2" width="100.6" height="244.6"/>
  <path class="st0" d="M1276.5,34.6c-11.2-9.8-26.6-14-44.7-14s-33.5,4.2-44.7,14c-11.2,9.8-16.8,22.4-16.8,36.3s5.6,28,16.8,36.3c11.2,9.8,26.6,14,44.7,14s33.5-4.2,44.7-15.4c11.2-9.8,16.8-22.4,16.8-39.1s-5.6-23.8-16.8-32.1Z"/>
  <rect class="st0" x="1336.6" y="55.5" width="100.6" height="331.3"/>
  <path class="st0" d="M1700.1,167.4c-22.4-19.6-55.9-29.4-97.8-29.4s-39.1,2.8-60.1,7c-19.6,4.2-36.3,11.2-50.3,19.6l32.1,67.1c8.4-5.6,18.2-11.2,29.4-14,11.2-4.2,22.4-5.6,33.5-5.6,28,0,43.3,9.8,46.1,28h-40.5c-37.7,0-65.7,7-83.9,18.2-18.2,12.6-28,30.8-28,54.5s2.8,28,9.8,39.1,16.8,21,30.8,28c14,7,30.8,9.8,48.9,9.8,34.9,0,57.3-12.6,69.9-36.3v32.1h93.6v-131.4c0-37.7-11.2-67.1-33.5-86.7ZM1633,308.5c-2.8,8.4-7,14-12.6,16.8-5.6,4.2-12.6,5.6-19.6,5.6s-14-1.4-18.2-5.6c-4.2-4.2-5.6-8.4-5.6-14,0-14,9.8-21,30.8-21h25.2v18.2Z"/>
  <path class="st0" d="M1957.3,314.1c-7,2.8-16.8,4.2-26.6,4.2s-22.4-2.8-30.8-7c-8.4-5.6-14-12.6-18.2-21h170.5c-1.4-15.4-1.4-23.8-1.4-25.2,0-26.6-5.6-48.9-18.2-68.5-12.6-19.6-28-33.5-48.9-43.3-21-9.8-43.3-14-67.1-14s-50.3,5.6-71.3,15.4c-21,11.2-37.7,25.2-48.9,44.7-11.2,19.6-18.2,40.5-18.2,65.7s5.6,46.1,18.2,65.7c12.6,19.6,29.4,34.9,51.7,46.1,22.4,11.2,48.9,15.4,78.3,15.4,47.5,0,82.5-12.6,107.6-39.1l-53.1-53.1c-8.4,7-16.8,11.2-23.8,14ZM1891.6,216.3c7-5.6,15.4-8.4,26.6-8.4s19.6,2.8,25.2,8.4c7,5.6,11.2,14,14,23.8h-79.7c1.4-11.2,7-18.2,14-23.8Z"/>
  <path class="st0" d="M2187.9,168.8v-26.6h-96.4v244.6h100.6v-109c0-34.9,16.8-53.1,51.7-53.1s14,0,22.4,1.4v-88.1c-33.5,0-60.1,11.2-78.3,30.8Z"/>
</svg>