<svg width="1000" height="1000" viewBox="0 0 1000 1000" fill="none" xmlns="http://www.w3.org/2000/svg">
  <!-- White background -->
  <rect width="1000" height="1000" fill="white"/>

  <!-- Retailaer logo centered -->
  <g transform="translate(45, 28)">
    <path d="M707.5 653.022C766.417 623.554 808.5 581.455 837.958 535.147C867.417 484.629 884.25 425.692 884.25 358.335C884.25 286.768 867.417 223.621 833.75 168.893C800.083 114.165 749.583 72.067 682.25 42.5982C619.125 13.1295 543.375 0.5 455 0.5H0.5V404.643C88.875 404.643 194.083 387.804 299.292 337.286L223.577 309.381C220.75 308.339 217.831 307.524 215.102 306.247C211.851 304.725 207.707 302 206.427 297.654C205.158 293.344 206.394 288.283 209.331 284.882C217.25 275.712 240.375 269.929 240.375 269.929C240.375 269.929 265.625 265.719 290.875 269.929C328.75 274.138 402.292 286.679 402.292 286.679C402.292 286.679 412.155 286.679 423.333 282.469C431.288 278.49 538.143 237.294 549.858 232.78C550.59 232.498 551.26 232.241 552.001 231.982C557.191 230.168 580.18 222.766 609.722 222.766C625.898 222.766 636.113 224.458 642.836 226.724C653.344 230.266 664.732 242.383 659.851 252.34C656.806 258.551 648.085 266.778 627.225 277.643C567.122 308.949 537.017 324.448 522.108 332.051C512.668 336.865 502.708 341.951 497.97 351.43V351.43C494.682 358.01 460.54 432.597 445.777 464.879C441.281 474.709 437.037 484.744 430.608 493.433C425.038 500.962 416.468 510.386 404.2 518.568C400.396 521.105 397.072 522.966 394.155 524.3C379.873 530.826 362.116 534.271 362.116 518.568V518.568C362.116 514.358 362.116 510.149 366.325 476.47C370.533 438.582 379.707 390.743 379.707 390.743C379.707 390.743 21.8758 535.147 4.70833 825.969V943.5H324.542V707.75H408.708L568.625 943.5H909.5L707.5 653.022ZM560.208 476.21C560.208 472 556 467.79 551.792 467.79H543.375V522.518H551.792C556 522.518 560.208 518.308 560.208 514.098C564.417 509.888 564.417 501.469 564.417 493.049C564.417 488.839 560.208 480.42 560.208 476.21Z" fill="#00BBA4"/>
  </g>

  <!-- Pencil badge (bottom right) -->
  <circle cx="750" cy="750" r="120" fill="#f5b800"/>
  <circle cx="750" cy="750" r="110" fill="#f5b800" stroke="white" stroke-width="20"/>

  <!-- Pencil icon -->
  <g transform="translate(750, 750)">
    <path d="M40 -80 L80 -40 L-40 80 L-80 80 L-70 40 Z" fill="white" stroke="white" stroke-width="8" stroke-linecap="round" stroke-linejoin="round"/>
  </g>
</svg>
