<svg width="160" height="28" viewBox="0 0 160 28" fill="none" xmlns="http://www.w3.org/2000/svg">
<path d="M16.8 19.9001C18.2 19.2001 19.2 18.2001 19.9 17.1001C20.6 15.9001 21 14.5001 21 12.9001C21 11.2001 20.6 9.7001 19.8 8.4001C19 7.1001 17.8 6.1001 16.2 5.4001C14.7 4.7001 12.9 4.4001 10.8 4.4001H0V14.0001C2.1 14.0001 4.6 13.6001 7.1 12.4001L5.30145 11.7375C5.23387 11.7126 5.16406 11.6931 5.09885 11.6625C5.02196 11.6265 4.92434 11.5621 4.89364 11.4598C4.86276 11.3568 4.89255 11.2356 4.96305 11.1545C5.1519 10.9371 5.7 10.8001 5.7 10.8001C5.7 10.8001 6.3 10.7001 6.9 10.8001C7.8 10.9001 9.54752 11.198 9.54752 11.198C9.54752 11.198 9.7819 11.198 10.0475 11.098C10.2365 11.0035 12.7746 10.0253 13.0539 9.91775C13.0714 9.91101 13.0874 9.90484 13.1051 9.89865C13.2288 9.85546 13.7749 9.67981 14.4766 9.67981C14.8589 9.67981 15.1011 9.71956 15.2609 9.77296C15.5124 9.85702 15.7849 10.1476 15.6665 10.3849C15.5929 10.5321 15.3853 10.7268 14.8925 10.9833C13.4642 11.727 12.7489 12.0952 12.3946 12.2758C12.1703 12.3901 11.9337 12.5109 11.8211 12.7361C11.743 12.8922 10.9333 14.6605 10.5819 15.4286C10.4744 15.6637 10.3729 15.9037 10.2188 16.1113C10.0865 16.2898 9.88325 16.5127 9.59286 16.7063C9.50244 16.7666 9.42342 16.8108 9.35407 16.8425C9.01474 16.9974 8.59286 17.0793 8.59286 16.7063C8.59286 16.6063 8.59286 16.5063 8.69286 15.7063C8.79286 14.8063 9.01087 13.6699 9.01087 13.6699C9.01087 13.6699 0.507939 17.1001 0.0999999 24.0083V26.8001H7.7V21.2001H9.7L13.5 26.8001H21.6L16.8 19.9001ZM13.3 15.7001C13.3 15.6001 13.2 15.5001 13.1 15.5001H12.9V16.8001H13.1C13.2 16.8001 13.3 16.7001 13.3 16.6001C13.4 16.5001 13.4 16.3001 13.4 16.1001C13.4 16.0001 13.3 15.8001 13.3 15.7001ZM42.9 18.1001C42.9 16.2001 42.5 14.6001 41.6 13.2001C40.8 11.8001 39.6 10.8001 38.1 10.1001C36.6 9.4001 35 9.1001 33.3 9.1001C31.4 9.1001 29.7 9.5001 28.2 10.2001C26.7 11.0001 25.5 12.0001 24.6 13.4001C23.7 14.8001 23.3 16.3001 23.3 18.1001C23.3 19.8001 23.7 21.4001 24.6 22.8001C25.5 24.2001 26.7 25.3001 28.3 26.1001C29.9 26.9001 31.7 27.2001 33.9 27.2001C37.3 27.2001 39.8 26.3001 41.5 24.4001L37.7 20.6001C37.1 21.1001 36.5 21.4001 36 21.6001C35.5 21.8001 34.9 21.9001 34.1 21.9001C33.2 21.9001 32.5 21.7001 31.9 21.4001C31.3 21.0001 30.9 20.5001 30.6 19.9001H42.8C42.8 18.8001 42.9 18.2001 42.9 18.1001ZM30.5 16.3001C30.7 15.5001 31 15.0001 31.5 14.6001C32 14.2001 32.6 14.0001 33.4 14.0001C34.1 14.0001 34.8 14.2001 35.3 14.6001C35.8 15.0001 36.1 15.6001 36.3 16.3001H30.5ZM57 21.2001C56.5 21.5001 56 21.7001 55.4 21.7001C55 21.7001 54.6 21.5001 54.3 21.2001C54 21.0001 53.8 20.5001 53.8 20.0001V15.6001H57.4V10.3001H53.8V5.4001H46.6V10.3001H44.2V15.6001H46.6V20.1001C46.6 22.5001 47.3 24.2001 48.6 25.4001C49.9 26.6001 51.8 27.2001 54.3 27.2001C56.2 27.2001 57.7 26.9001 58.7 26.3001L57 21.2001ZM76 11.1001C74.4 9.7001 72 9.0001 69 9.0001C67.6 9.0001 66.2 9.2001 64.7 9.5001C63.3 9.8001 62.1 10.3001 61.1 10.9001L63.4 15.7001C64 15.3001 64.7 14.9001 65.5 14.7001C66.3 14.4001 67.1 14.3001 67.9 14.3001C69.9 14.3001 71 15.0001 71.2 16.3001H68.3C65.6 16.3001 63.6 16.8001 62.3 17.6001C61 18.5001 60.3 19.8001 60.3 21.5001C60.3 22.5001 60.5 23.5001 61 24.3001C61.5 25.1001 62.2 25.8001 63.2 26.3001C64.2 26.8001 65.4 27.0001 66.8 27.0001C69.3 27.0001 70.9 26.1001 71.8 24.4001V26.7001H78.5V17.3001C78.5 14.6001 77.7 12.5001 76 11.1001ZM71.2 21.2001C71 21.8001 70.7 22.2001 70.3 22.4001C69.9 22.7001 69.4 22.8001 68.9 22.8001C68.4 22.8001 67.9 22.7001 67.6 22.4001C67.3 22.1001 67.2 21.8001 67.2 21.4001C67.2 20.4001 67.9 19.9001 69.4 19.9001H71.2V21.2001ZM82.2 9.3001V26.8001H89.4V9.3001H82.2ZM89 1.6001C88.2 0.900098 87.1 0.600098 85.8 0.600098C84.5 0.600098 83.4 0.900098 82.6 1.6001C81.8 2.3001 81.4 3.2001 81.4 4.2001C81.4 5.3001 81.8 6.2001 82.6 6.8001C83.4 7.5001 84.5 7.8001 85.8 7.8001C87.1 7.8001 88.2 7.5001 89 6.7001C89.8 6.0001 90.2 5.1001 90.2 3.9001C90.2 3.1001 89.8 2.2001 89 1.6001ZM93.3 3.1001V26.8001H100.5V3.1001H93.3ZM119.3 11.1001C117.7 9.7001 115.3 9.0001 112.3 9.0001C110.9 9.0001 109.5 9.2001 108 9.5001C106.6 9.8001 105.4 10.3001 104.4 10.9001L106.7 15.7001C107.3 15.3001 108 14.9001 108.8 14.7001C109.6 14.4001 110.4 14.3001 111.2 14.3001C113.2 14.3001 114.3 15.0001 114.5 16.3001H111.6C108.9 16.3001 106.9 16.8001 105.6 17.6001C104.3 18.5001 103.6 19.8001 103.6 21.5001C103.6 22.5001 103.8 23.5001 104.3 24.3001C104.8 25.1001 105.5 25.8001 106.5 26.3001C107.5 26.8001 108.7 27.0001 110 27.0001C112.5 27.0001 114.1 26.1001 115 24.4001V26.7001H121.7V17.3001C121.7 14.6001 120.9 12.5001 119.3 11.1001ZM114.5 21.2001C114.3 21.8001 114 22.2001 113.6 22.4001C113.2 22.7001 112.7 22.8001 112.2 22.8001C111.7 22.8001 111.2 22.7001 110.9 22.4001C110.6 22.1001 110.5 21.8001 110.5 21.4001C110.5 20.4001 111.2 19.9001 112.7 19.9001H114.5V21.2001ZM144.4 18.1001C144.4 16.2001 144 14.6001 143.1 13.2001C142.2 11.8001 141.1 10.8001 139.6 10.1001C138.1 9.4001 136.5 9.1001 134.8 9.1001C132.9 9.1001 131.2 9.5001 129.7 10.2001C128.2 11.0001 127 12.0001 126.2 13.4001C125.4 14.8001 124.9 16.3001 124.9 18.1001C124.9 19.8001 125.3 21.4001 126.2 22.8001C127.1 24.2001 128.3 25.3001 129.9 26.1001C131.5 26.9001 133.4 27.2001 135.5 27.2001C138.9 27.2001 141.4 26.3001 143.2 24.4001L139.4 20.6001C138.8 21.1001 138.2 21.4001 137.7 21.6001C137.2 21.8001 136.5 21.9001 135.8 21.9001C134.9 21.9001 134.2 21.7001 133.6 21.4001C133 21.0001 132.6 20.5001 132.3 19.9001H144.5C144.4 18.8001 144.4 18.2001 144.4 18.1001ZM132 16.3001C132.1 15.5001 132.5 15.0001 133 14.6001C133.5 14.2001 134.1 14.0001 134.9 14.0001C135.6 14.0001 136.3 14.2001 136.7 14.6001C137.2 15.0001 137.5 15.6001 137.7 16.3001H132ZM154.2 11.2001V9.3001H147.3V26.8001H154.5V19.0001C154.5 16.5001 155.7 15.2001 158.2 15.2001C158.7 15.2001 159.2 15.2001 159.8 15.3001V9.0001C157.4 9.0001 155.5 9.8001 154.2 11.2001Z" fill="#00BBA4"/>
</svg>
