<svg width="24" height="24" viewBox="0 0 24 24" fill="none" xmlns="http://www.w3.org/2000/svg">
<path fill-rule="evenodd" clip-rule="evenodd" d="M24 12C24 18.6274 18.6274 24 12 24C5.37258 24 0 18.6274 0 12C0 5.37258 5.37258 0 12 0C18.6274 0 24 5.37258 24 12ZM16.5962 7.40381C17.182 7.98959 17.182 8.93934 16.5962 9.52513L14.1211 12.0002L16.5962 14.4752C17.182 15.061 17.182 16.0108 16.5962 16.5966C16.0104 17.1824 15.0606 17.1824 14.4749 16.5966L11.9998 14.1215L9.52513 16.5962C8.93934 17.182 7.98959 17.182 7.40381 16.5962C6.81802 16.0104 6.81802 15.0607 7.40381 14.4749L9.87849 12.0002L7.40379 9.5255C6.81801 8.93971 6.81801 7.98997 7.40379 7.40418C7.98958 6.81839 8.93933 6.81839 9.52511 7.40418L11.9998 9.87887L14.4749 7.40381C15.0607 6.81802 16.0104 6.81802 16.5962 7.40381Z" fill="#2F4858" fill-opacity="0.4"/>
</svg>
