<svg width="24" height="24" viewBox="0 0 24 24" fill="none" xmlns="http://www.w3.org/2000/svg">
<path fill-rule="evenodd" clip-rule="evenodd" d="M24 12C24 18.6274 18.6274 24 12 24C5.37258 24 0 18.6274 0 12C0 5.37258 5.37258 0 12 0C18.6274 0 24 5.37258 24 12ZM5.63604 11.4386C6.22183 10.8528 7.17158 10.8528 7.75736 11.4386L10.2323 13.9135L16.2426 7.90321C16.8284 7.31742 17.7782 7.31742 18.364 7.90321C18.9497 8.48899 18.9497 9.43874 18.364 10.0245L11.2929 17.0956C10.7071 17.6814 9.75736 17.6814 9.17157 17.0956C9.16728 17.0913 9.16302 17.087 9.1588 17.0827L5.63604 13.5599C5.05025 12.9741 5.05025 12.0244 5.63604 11.4386Z" fill="white"/>
</svg>
