<svg preserveAspectRatio="none" width="100%" height="100%" overflow="visible" style="display: block;" viewBox="0 0 187 187" fill="none" xmlns="http://www.w3.org/2000/svg">
<path id="Vector" d="M147.536 162.503L130.565 85.1925L163.563 52.1942C177.706 38.052 182.42 19.1959 177.706 9.76777C168.278 5.05372 149.421 9.76777 135.279 23.9099L102.281 56.9082L24.9706 39.9377C20.2565 38.9948 16.4853 40.8805 14.5997 44.6517L11.7712 49.3657C9.88562 54.0798 10.8284 58.7938 14.5997 61.6223L64.5685 94.6206L45.7124 122.905H17.4281L8 132.333L36.2843 151.189L55.1405 179.473L64.5685 170.045V141.761L92.8528 122.905L125.851 172.874C128.68 176.645 133.394 177.588 138.108 175.702L142.822 173.817C146.593 170.988 148.479 167.217 147.536 162.503Z" stroke="var(--stroke-0, white)" stroke-width="14.1421" stroke-linecap="round" stroke-linejoin="round"/>
</svg>
