<?xml version="1.0" encoding="UTF-8"?>
<svg id="Layer_1" xmlns="http://www.w3.org/2000/svg" version="1.1" viewBox="0 0 180 180">
  <!-- Generator: Adobe Illustrator 29.3.0, SVG Export Plug-In . SVG Version: 2.1.0 Build 146)  -->
  <defs>
    <style>
      .st0 {
        fill: #1d1d1b;
      }
    </style>
  </defs>
  <path class="st0" d="M136.4,123.3c10.8-5.4,18.6-13.2,24-21.7,5.4-9.3,8.5-20.1,8.5-32.5s-3.1-24.8-9.3-34.8c-6.2-10.1-15.5-17.8-27.9-23.2-11.6-5.4-25.5-7.7-41.8-7.7H6.4v74.3c16.3,0,35.6-3.1,55-12.4l-13.9-5.1c-.5-.2-1.1-.3-1.6-.6-.6-.3-1.4-.8-1.6-1.6-.2-.8,0-1.7.5-2.4,1.5-1.7,5.7-2.7,5.7-2.7,0,0,4.6-.8,9.3,0,7,.8,20.5,3.1,20.5,3.1,0,0,1.8,0,3.9-.8,1.5-.7,21.1-8.3,23.3-9.1.1,0,.3,0,.4-.1,1-.3,5.2-1.7,10.6-1.7s4.8.3,6.1.7c1.9.7,4.1,2.9,3.1,4.7-.6,1.1-2.2,2.6-6,4.6-11.1,5.8-16.6,8.6-19.3,10-1.7.9-3.6,1.8-4.4,3.6-.6,1.2-6.9,14.9-9.6,20.8-.8,1.8-1.6,3.7-2.8,5.3-1,1.4-2.6,3.1-4.8,4.6-.7.5-1.3.8-1.8,1.1-2.6,1.2-5.9,1.8-5.9-1.1s0-1.5.8-7.7c.8-7,2.5-15.8,2.5-15.8,0,0-65.8,26.6-69,80v21.6h58.8v-43.3h15.5l29.4,43.3h62.7l-37.2-53.4Z"/>
</svg>