<svg xmlns="http://www.w3.org/2000/svg" viewBox="0 0 512 512" width="512" height="512">
<path d="M 374.90 173.92 L 350.26 170.99 L 325.62 179.79 L 271.00 226.69 L 176.74 208.12 L 162.81 209.10 L 154.24 215.94 L 147.82 227.66 L 151.03 243.30 L 209.94 279.45 L 211.01 285.31 L 194.95 305.83 L 160.67 305.83 L 144.60 320.49 L 144.60 327.33 L 182.09 350.78 L 208.87 385.95 L 217.44 385.95 L 231.36 373.25 L 233.51 339.05 L 256.00 325.37 L 262.43 327.33 L 300.99 380.09 L 319.20 383.02 L 337.41 372.27 L 340.62 360.55 L 319.20 270.66 L 372.75 217.89 L 380.25 199.33 L 380.25 182.72 Z" fill="#FFFFFF"/>
</svg>