<svg width="400" height="400" viewBox="0 0 400 400" xmlns="http://www.w3.org/2000/svg">
    <defs>
        <style>
            .airplane-container {
                animation: drift 8s ease-in-out infinite;
                transform-box: fill-box;
                transform-origin: center;
            }

            .airplane-icon {
                animation: rotate 60s ease-in-out infinite;
                transform-box: fill-box;
                transform-origin: center;
            }

            @keyframes drift {
                0%, 100% {
                    transform: translate(0, 0);
                }
                25% {
                    transform: translate(15px, -10px);
                }
                50% {
                    transform: translate(-10px, 10px);
                }
                75% {
                    transform: translate(10px, 15px);
                }
            }

            @keyframes rotate {
                0% {
                    transform: rotate(0deg) rotateX(0deg) rotateY(0deg);
                }
                7.5% {
                    transform: rotate(0deg) rotateX(-25deg) rotateY(0deg);
                }
                15% {
                    transform: rotate(0deg) rotateX(-30deg) rotateY(0deg);
                }
                22.5% {
                    transform: rotate(0deg) rotateX(0deg) rotateY(0deg);
                }
                27.5% {
                    transform: rotate(0deg) rotateX(0deg) rotateY(0deg);
                }
                32.5% {
                    transform: rotate(-8deg) rotateX(0deg) rotateY(4deg);
                }
                37.5% {
                    transform: rotate(0deg) rotateX(0deg) rotateY(0deg);
                }
                42.5% {
                    transform: rotate(0deg) rotateX(6deg) rotateY(0deg);
                }
                47.5% {
                    transform: rotate(0deg) rotateX(8deg) rotateY(0deg);
                }
                50% {
                    transform: rotate(0deg) rotateX(0deg) rotateY(0deg);
                }
                55% {
                    transform: rotate(0deg) rotateX(-5deg) rotateY(0deg);
                }
                60% {
                    transform: rotate(15deg) rotateX(-8deg) rotateY(-15deg);
                }
                70% {
                    transform: rotate(35deg) rotateX(-10deg) rotateY(-25deg);
                }
                80% {
                    transform: rotate(30deg) rotateX(-8deg) rotateY(-20deg);
                }
                87.5% {
                    transform: rotate(10deg) rotateX(-3deg) rotateY(-5deg);
                }
                95% {
                    transform: rotate(0deg) rotateX(0deg) rotateY(0deg);
                }
                100% {
                    transform: rotate(0deg) rotateX(0deg) rotateY(0deg);
                }
            }

            .circle-bg {
                filter: drop-shadow(0 10px 30px rgba(0, 0, 0, 0.2));
            }
        </style>
    </defs>

    <g class="airplane-container">
        <circle class="circle-bg" cx="200" cy="200" r="120" fill="#4a7a73" opacity="0.6"/>
        
        <g class="airplane-icon" transform="translate(68, 72) scale(0.75)">
            <g transform="translate(0.000000,306.000000) scale(0.100000,-0.100000)">
                <path d="M2418 2326 c42 -21 67 -102 57 -179 -20 -142 -74 -228 -277 -433 l-158
                -161 77 -350 c70 -323 76 -355 65 -392 -30 -97 -167 -158 -259 -114 -28 13
                -63 58 -175 227 -78 116 -142 212 -143 214 -2 2 -42 -22 -89 -54 l-86 -57 0
                -127 0 -127 -59 -56 c-50 -47 -66 -57 -95 -57 -35 0 -38 4 -126 135 l-90 135
                -134 89 c-175 118 -178 126 -71 231 l56 55 125 3 125 4 54 81 55 81 -212 141
                c-237 157 -252 173 -245 261 6 88 90 184 161 184 17 0 184 -34 371 -75 l339
                -74 176 172 c186 183 243 223 362 253 65 16 154 12 196 -10z" fill="#FFFFFF"/>
            </g>
        </g>
    </g>
</svg>
